# xmcd CD database file
#
# Track frame offsets:
#	183
#	15915
#	44268
#	64970
#	84338
#	104848
#	124053
#	141180
#	164165
#	181168
#	203183
#	223353
#	245710
#
# Disc length: 3419 seconds
#
# Revision: 1
# Processed by: cddbd v1.5.1PL0 Copyright (c) Steve Scherf et al.
# Submitted via: CDex 1.51
#
DISCID=c50d590d
DTITLE=Charly Antolini - A Swinging Affair
DYEAR=1989
DGENRE=Jazz
TTITLE0=If Dreams Come True
TTITLE1=Easy Does It
TTITLE2=Indian Summer
TTITLE3=Cotton Tail
TTITLE4=Street Of Dreams
TTITLE5=Jones
TTITLE6=Indiana
TTITLE7=Soft Winds
TTITLE8=Dinah
TTITLE9=Rosetta
TTITLE10=Sultry Serenade
TTITLE11=Alone Together
TTITLE12=Lady Be Good
EXTD=YEAR: 1989
EXTT0=
EXTT1=
EXTT2=
EXTT3=
EXTT4=
EXTT5=
EXTT6=
EXTT7=
EXTT8=
EXTT9=
EXTT10=
EXTT11=
EXTT12=
PLAYORDER=
